<?xml version="1.0" standalone="no"?><!DOCTYPE svg PUBLIC "-//W3C//DTD SVG 1.1//EN" "http://www.w3.org/Graphics/SVG/1.1/DTD/svg11.dtd"><svg t="1669753844174" class="icon" viewBox="0 0 1024 1024" version="1.1" xmlns="http://www.w3.org/2000/svg" p-id="26239" xmlns:xlink="http://www.w3.org/1999/xlink" width="200" height="200"><path d="M512 170.666667l-234.666667 192H128v298.666666h149.333333l234.666667 192V170.666667z" fill="#000000" p-id="26240"></path><path d="M530.282667 132.117333A42.666667 42.666667 0 0 1 554.666667 170.666667v682.666666a42.666667 42.666667 0 0 1-69.696 33.024L262.122667 704H128a42.666667 42.666667 0 0 1-42.666667-42.666667V362.666667a42.666667 42.666667 0 0 1 42.666667-42.666667h134.101333l222.869334-182.357333a42.666667 42.666667 0 0 1 45.290666-5.546667zM469.333333 260.693333l-164.970666 134.997334A42.666667 42.666667 0 0 1 277.333333 405.333333H170.666667v213.333334h106.666666a42.666667 42.666667 0 0 1 27.029334 9.642666L469.333333 763.306667V260.693333zM676.736 712.469333A234.538667 234.538667 0 0 0 789.333333 512c0-84.906667-45.077333-159.253333-112.597333-200.448l-57.536 65.749333a149.333333 149.333333 0 0 1 0 269.397334l57.536 65.770666z" fill="#000000" p-id="26241"></path><path d="M748.224 844.224C862.613333 777.728 939.52 653.845333 939.52 512c0-141.845333-76.906667-265.728-191.296-332.224l-56.874667 66.602667C787.562667 295.978667 853.333333 396.309333 853.333333 512c0 115.690667-65.792 216.021333-161.984 265.621333l56.874667 66.602667z" fill="#000000" p-id="26242"></path></svg>